<mxfile host="app.diagrams.net" modified="2021-01-13T01:40:42.736Z" agent="5.0 (Macintosh; Intel Mac OS X 11_0_0) AppleWebKit/537.36 (KHTML, like Gecko) Chrome/87.0.4280.141 Safari/537.36" etag="TZwcnzKyw6snlDiZmN_t" version="14.1.8" type="github">
  <diagram id="Hs13dnjIaAIShmFf6Qo-" name="第 1 页">
    <mxGraphModel dx="1318" dy="1942" grid="0" gridSize="10" guides="1" tooltips="1" connect="1" arrows="1" fold="1" page="1" pageScale="1" pageWidth="827" pageHeight="1169" math="0" shadow="0">
      <root>
        <mxCell id="0" />
        <mxCell id="1" parent="0" />
        <mxCell id="yiPBfoOaf0CJgp_YEPqx-25" value="" style="rounded=1;whiteSpace=wrap;html=1;" parent="1" vertex="1">
          <mxGeometry x="442" y="210" width="201" height="467" as="geometry" />
        </mxCell>
        <mxCell id="yiPBfoOaf0CJgp_YEPqx-10" value="" style="rounded=1;whiteSpace=wrap;html=1;" parent="1" vertex="1">
          <mxGeometry x="81" y="214" width="201" height="460" as="geometry" />
        </mxCell>
        <mxCell id="yiPBfoOaf0CJgp_YEPqx-1" value="" style="verticalLabelPosition=bottom;verticalAlign=top;html=1;shape=mxgraph.basic.polygon;polyCoords=[[0.25,0],[0.75,0],[1,0.25],[1,0.75],[0.75,1],[0.25,1],[0,0.75],[0,0.25]];polyline=0;" parent="1" vertex="1">
          <mxGeometry x="332.5" y="-32" width="77" height="77" as="geometry" />
        </mxCell>
        <mxCell id="erWMEcOCaH_annTz6uU9-38" style="edgeStyle=orthogonalEdgeStyle;curved=1;orthogonalLoop=1;jettySize=auto;html=1;exitX=0.25;exitY=1;exitDx=0;exitDy=0;" parent="1" source="yiPBfoOaf0CJgp_YEPqx-2" target="yiPBfoOaf0CJgp_YEPqx-3" edge="1">
          <mxGeometry relative="1" as="geometry" />
        </mxCell>
        <mxCell id="mVT7TIV0F4o8_V1rwcll-5" style="edgeStyle=orthogonalEdgeStyle;orthogonalLoop=1;jettySize=auto;html=1;exitX=0.75;exitY=1;exitDx=0;exitDy=0;curved=1;" edge="1" parent="1" source="yiPBfoOaf0CJgp_YEPqx-2" target="mVT7TIV0F4o8_V1rwcll-1">
          <mxGeometry relative="1" as="geometry" />
        </mxCell>
        <mxCell id="yiPBfoOaf0CJgp_YEPqx-2" value="DNS" style="text;html=1;strokeColor=none;fillColor=none;align=center;verticalAlign=middle;whiteSpace=wrap;rounded=0;" parent="1" vertex="1">
          <mxGeometry x="353.5" y="-3.5" width="40" height="20" as="geometry" />
        </mxCell>
        <mxCell id="yiPBfoOaf0CJgp_YEPqx-3" value="" style="verticalLabelPosition=bottom;verticalAlign=top;html=1;shape=mxgraph.basic.plaque;dx=6;" parent="1" vertex="1">
          <mxGeometry x="130.5" y="97" width="100" height="60" as="geometry" />
        </mxCell>
        <mxCell id="mVT7TIV0F4o8_V1rwcll-7" style="edgeStyle=orthogonalEdgeStyle;curved=1;orthogonalLoop=1;jettySize=auto;html=1;exitX=0.5;exitY=1;exitDx=0;exitDy=0;entryX=0.5;entryY=0;entryDx=0;entryDy=0;" edge="1" parent="1" source="yiPBfoOaf0CJgp_YEPqx-7" target="mVT7TIV0F4o8_V1rwcll-6">
          <mxGeometry relative="1" as="geometry" />
        </mxCell>
        <mxCell id="mVT7TIV0F4o8_V1rwcll-8" style="edgeStyle=orthogonalEdgeStyle;curved=1;orthogonalLoop=1;jettySize=auto;html=1;exitX=0.5;exitY=1;exitDx=0;exitDy=0;" edge="1" parent="1" source="yiPBfoOaf0CJgp_YEPqx-7" target="erWMEcOCaH_annTz6uU9-21">
          <mxGeometry relative="1" as="geometry" />
        </mxCell>
        <mxCell id="yiPBfoOaf0CJgp_YEPqx-7" value="网关" style="rounded=1;whiteSpace=wrap;html=1;" parent="1" vertex="1">
          <mxGeometry x="140" y="239" width="81" height="45" as="geometry" />
        </mxCell>
        <mxCell id="mVT7TIV0F4o8_V1rwcll-11" style="edgeStyle=orthogonalEdgeStyle;curved=1;orthogonalLoop=1;jettySize=auto;html=1;exitX=0.5;exitY=1;exitDx=0;exitDy=0;entryX=0.5;entryY=0;entryDx=0;entryDy=0;" edge="1" parent="1" source="yiPBfoOaf0CJgp_YEPqx-8" target="mVT7TIV0F4o8_V1rwcll-10">
          <mxGeometry relative="1" as="geometry" />
        </mxCell>
        <mxCell id="mVT7TIV0F4o8_V1rwcll-12" style="edgeStyle=orthogonalEdgeStyle;curved=1;orthogonalLoop=1;jettySize=auto;html=1;exitX=0.5;exitY=1;exitDx=0;exitDy=0;" edge="1" parent="1" source="yiPBfoOaf0CJgp_YEPqx-8" target="yiPBfoOaf0CJgp_YEPqx-26">
          <mxGeometry relative="1" as="geometry" />
        </mxCell>
        <mxCell id="yiPBfoOaf0CJgp_YEPqx-8" value="网关" style="rounded=1;whiteSpace=wrap;html=1;" parent="1" vertex="1">
          <mxGeometry x="496" y="226" width="105" height="58" as="geometry" />
        </mxCell>
        <mxCell id="yiPBfoOaf0CJgp_YEPqx-13" value="eureka" style="rounded=1;whiteSpace=wrap;html=1;" parent="1" vertex="1">
          <mxGeometry x="90" y="392" width="80" height="48" as="geometry" />
        </mxCell>
        <mxCell id="yiPBfoOaf0CJgp_YEPqx-14" value="apollo" style="rounded=1;whiteSpace=wrap;html=1;" parent="1" vertex="1">
          <mxGeometry x="184" y="392" width="80" height="48" as="geometry" />
        </mxCell>
        <mxCell id="yiPBfoOaf0CJgp_YEPqx-15" value="rocketmq" style="rounded=1;whiteSpace=wrap;html=1;" parent="1" vertex="1">
          <mxGeometry x="90" y="453" width="80" height="48" as="geometry" />
        </mxCell>
        <mxCell id="yiPBfoOaf0CJgp_YEPqx-16" value="schedule" style="rounded=1;whiteSpace=wrap;html=1;" parent="1" vertex="1">
          <mxGeometry x="184" y="453" width="80" height="48" as="geometry" />
        </mxCell>
        <mxCell id="yiPBfoOaf0CJgp_YEPqx-18" value="" style="endArrow=none;dashed=1;html=1;entryX=0.995;entryY=0.544;entryDx=0;entryDy=0;entryPerimeter=0;exitX=0.005;exitY=0.549;exitDx=0;exitDy=0;exitPerimeter=0;" parent="1" source="yiPBfoOaf0CJgp_YEPqx-10" target="yiPBfoOaf0CJgp_YEPqx-10" edge="1">
          <mxGeometry width="50" height="50" relative="1" as="geometry">
            <mxPoint x="80" y="516" as="sourcePoint" />
            <mxPoint x="130" y="513" as="targetPoint" />
          </mxGeometry>
        </mxCell>
        <mxCell id="yiPBfoOaf0CJgp_YEPqx-20" value="" style="endArrow=none;dashed=1;html=1;" parent="1" edge="1">
          <mxGeometry width="50" height="50" relative="1" as="geometry">
            <mxPoint x="79" y="383" as="sourcePoint" />
            <mxPoint x="285" y="383" as="targetPoint" />
          </mxGeometry>
        </mxCell>
        <mxCell id="yiPBfoOaf0CJgp_YEPqx-22" value="redis" style="rounded=1;whiteSpace=wrap;html=1;" parent="1" vertex="1">
          <mxGeometry x="90" y="529" width="80" height="48" as="geometry" />
        </mxCell>
        <mxCell id="yiPBfoOaf0CJgp_YEPqx-23" value="mysql" style="rounded=1;whiteSpace=wrap;html=1;" parent="1" vertex="1">
          <mxGeometry x="184" y="529" width="80" height="48" as="geometry" />
        </mxCell>
        <mxCell id="yiPBfoOaf0CJgp_YEPqx-24" value="ES" style="rounded=1;whiteSpace=wrap;html=1;" parent="1" vertex="1">
          <mxGeometry x="90" y="600" width="80" height="48" as="geometry" />
        </mxCell>
        <mxCell id="yiPBfoOaf0CJgp_YEPqx-26" value="后端应用" style="rounded=1;whiteSpace=wrap;html=1;" parent="1" vertex="1">
          <mxGeometry x="542" y="321" width="80" height="48" as="geometry" />
        </mxCell>
        <mxCell id="yiPBfoOaf0CJgp_YEPqx-28" value="eureka" style="rounded=1;whiteSpace=wrap;html=1;" parent="1" vertex="1">
          <mxGeometry x="451" y="392" width="80" height="48" as="geometry" />
        </mxCell>
        <mxCell id="yiPBfoOaf0CJgp_YEPqx-29" value="apollo" style="rounded=1;whiteSpace=wrap;html=1;" parent="1" vertex="1">
          <mxGeometry x="545" y="392" width="80" height="48" as="geometry" />
        </mxCell>
        <mxCell id="yiPBfoOaf0CJgp_YEPqx-30" value="rocketmq" style="rounded=1;whiteSpace=wrap;html=1;" parent="1" vertex="1">
          <mxGeometry x="451" y="453" width="80" height="48" as="geometry" />
        </mxCell>
        <mxCell id="yiPBfoOaf0CJgp_YEPqx-31" value="schedule" style="rounded=1;whiteSpace=wrap;html=1;" parent="1" vertex="1">
          <mxGeometry x="545" y="453" width="80" height="48" as="geometry" />
        </mxCell>
        <mxCell id="yiPBfoOaf0CJgp_YEPqx-32" value="" style="endArrow=none;dashed=1;html=1;entryX=0.995;entryY=0.544;entryDx=0;entryDy=0;entryPerimeter=0;exitX=0.005;exitY=0.549;exitDx=0;exitDy=0;exitPerimeter=0;" parent="1" source="yiPBfoOaf0CJgp_YEPqx-25" target="yiPBfoOaf0CJgp_YEPqx-25" edge="1">
          <mxGeometry width="50" height="50" relative="1" as="geometry">
            <mxPoint x="441" y="516" as="sourcePoint" />
            <mxPoint x="491" y="513" as="targetPoint" />
          </mxGeometry>
        </mxCell>
        <mxCell id="yiPBfoOaf0CJgp_YEPqx-33" value="" style="endArrow=none;dashed=1;html=1;" parent="1" edge="1">
          <mxGeometry width="50" height="50" relative="1" as="geometry">
            <mxPoint x="440" y="383" as="sourcePoint" />
            <mxPoint x="646" y="383" as="targetPoint" />
          </mxGeometry>
        </mxCell>
        <mxCell id="erWMEcOCaH_annTz6uU9-21" value="后端应用" style="rounded=1;whiteSpace=wrap;html=1;" parent="1" vertex="1">
          <mxGeometry x="188" y="325" width="80" height="48" as="geometry" />
        </mxCell>
        <mxCell id="erWMEcOCaH_annTz6uU9-27" style="edgeStyle=orthogonalEdgeStyle;curved=1;orthogonalLoop=1;jettySize=auto;html=1;exitX=0.5;exitY=1;exitDx=0;exitDy=0;" parent="1" source="erWMEcOCaH_annTz6uU9-24" target="yiPBfoOaf0CJgp_YEPqx-1" edge="1">
          <mxGeometry relative="1" as="geometry" />
        </mxCell>
        <mxCell id="erWMEcOCaH_annTz6uU9-24" value="H5" style="rounded=1;whiteSpace=wrap;html=1;" parent="1" vertex="1">
          <mxGeometry x="204.25" y="-132" width="80" height="48" as="geometry" />
        </mxCell>
        <mxCell id="erWMEcOCaH_annTz6uU9-29" style="edgeStyle=orthogonalEdgeStyle;curved=1;orthogonalLoop=1;jettySize=auto;html=1;exitX=0.5;exitY=1;exitDx=0;exitDy=0;" parent="1" source="erWMEcOCaH_annTz6uU9-25" target="yiPBfoOaf0CJgp_YEPqx-1" edge="1">
          <mxGeometry relative="1" as="geometry" />
        </mxCell>
        <mxCell id="erWMEcOCaH_annTz6uU9-25" value="小程序" style="rounded=1;whiteSpace=wrap;html=1;" parent="1" vertex="1">
          <mxGeometry x="328.75" y="-132" width="80" height="48" as="geometry" />
        </mxCell>
        <mxCell id="erWMEcOCaH_annTz6uU9-28" style="edgeStyle=orthogonalEdgeStyle;curved=1;orthogonalLoop=1;jettySize=auto;html=1;exitX=0.5;exitY=1;exitDx=0;exitDy=0;entryX=0.5;entryY=0.026;entryDx=0;entryDy=0;entryPerimeter=0;" parent="1" source="erWMEcOCaH_annTz6uU9-26" target="yiPBfoOaf0CJgp_YEPqx-1" edge="1">
          <mxGeometry relative="1" as="geometry" />
        </mxCell>
        <mxCell id="erWMEcOCaH_annTz6uU9-26" value="主播端" style="rounded=1;whiteSpace=wrap;html=1;" parent="1" vertex="1">
          <mxGeometry x="457.75" y="-135" width="80" height="48" as="geometry" />
        </mxCell>
        <mxCell id="erWMEcOCaH_annTz6uU9-30" value="app.sisiim.com" style="text;html=1;strokeColor=none;fillColor=none;align=center;verticalAlign=middle;whiteSpace=wrap;rounded=0;shadow=1;" parent="1" vertex="1">
          <mxGeometry x="436" y="-26" width="40" height="20" as="geometry" />
        </mxCell>
        <mxCell id="mVT7TIV0F4o8_V1rwcll-16" style="edgeStyle=orthogonalEdgeStyle;curved=1;orthogonalLoop=1;jettySize=auto;html=1;exitX=0.5;exitY=1;exitDx=0;exitDy=0;entryX=0.5;entryY=0;entryDx=0;entryDy=0;" edge="1" parent="1" source="erWMEcOCaH_annTz6uU9-39" target="yiPBfoOaf0CJgp_YEPqx-7">
          <mxGeometry relative="1" as="geometry" />
        </mxCell>
        <mxCell id="erWMEcOCaH_annTz6uU9-39" value="SLB" style="text;html=1;strokeColor=none;fillColor=none;align=center;verticalAlign=middle;whiteSpace=wrap;rounded=0;shadow=1;" parent="1" vertex="1">
          <mxGeometry x="163" y="117.5" width="40" height="20" as="geometry" />
        </mxCell>
        <mxCell id="erWMEcOCaH_annTz6uU9-45" value="阿里云" style="text;html=1;strokeColor=none;fillColor=none;align=center;verticalAlign=middle;whiteSpace=wrap;rounded=0;shadow=1;" parent="1" vertex="1">
          <mxGeometry x="157" y="690" width="40" height="20" as="geometry" />
        </mxCell>
        <mxCell id="erWMEcOCaH_annTz6uU9-46" value="华为云" style="text;html=1;strokeColor=none;fillColor=none;align=center;verticalAlign=middle;whiteSpace=wrap;rounded=0;shadow=1;" parent="1" vertex="1">
          <mxGeometry x="525" y="690" width="40" height="20" as="geometry" />
        </mxCell>
        <mxCell id="mVT7TIV0F4o8_V1rwcll-13" style="edgeStyle=orthogonalEdgeStyle;curved=1;orthogonalLoop=1;jettySize=auto;html=1;exitX=0.5;exitY=1;exitDx=0;exitDy=0;exitPerimeter=0;" edge="1" parent="1" source="mVT7TIV0F4o8_V1rwcll-1" target="yiPBfoOaf0CJgp_YEPqx-8">
          <mxGeometry relative="1" as="geometry" />
        </mxCell>
        <mxCell id="mVT7TIV0F4o8_V1rwcll-1" value="" style="verticalLabelPosition=bottom;verticalAlign=top;html=1;shape=mxgraph.basic.plaque;dx=6;" vertex="1" parent="1">
          <mxGeometry x="498.5" y="89" width="100" height="60" as="geometry" />
        </mxCell>
        <mxCell id="mVT7TIV0F4o8_V1rwcll-2" value="ELB" style="text;html=1;strokeColor=none;fillColor=none;align=center;verticalAlign=middle;whiteSpace=wrap;rounded=0;shadow=1;" vertex="1" parent="1">
          <mxGeometry x="528.5" y="111.5" width="40" height="20" as="geometry" />
        </mxCell>
        <mxCell id="mVT7TIV0F4o8_V1rwcll-6" value="后端应用" style="rounded=1;whiteSpace=wrap;html=1;" vertex="1" parent="1">
          <mxGeometry x="90" y="325" width="80" height="48" as="geometry" />
        </mxCell>
        <mxCell id="mVT7TIV0F4o8_V1rwcll-14" style="edgeStyle=orthogonalEdgeStyle;curved=1;orthogonalLoop=1;jettySize=auto;html=1;exitX=0.5;exitY=1;exitDx=0;exitDy=0;entryX=1;entryY=0.75;entryDx=0;entryDy=0;" edge="1" parent="1" source="mVT7TIV0F4o8_V1rwcll-10" target="yiPBfoOaf0CJgp_YEPqx-10">
          <mxGeometry relative="1" as="geometry">
            <Array as="points">
              <mxPoint x="389" y="369" />
              <mxPoint x="389" y="559" />
            </Array>
          </mxGeometry>
        </mxCell>
        <mxCell id="mVT7TIV0F4o8_V1rwcll-10" value="后端应用" style="rounded=1;whiteSpace=wrap;html=1;" vertex="1" parent="1">
          <mxGeometry x="457.75" y="321" width="80" height="48" as="geometry" />
        </mxCell>
      </root>
    </mxGraphModel>
  </diagram>
</mxfile>
